HIERARCHY
ROOT Hips
{
	OFFSET -218.811600 91.910019 -434.508209
	CHANNELS 6 Xposition Yposition Zposition Zrotation Yrotation Xrotation 
	JOINT LeftUpLeg
	{
		OFFSET 0.103459 1.857842 10.548500
		CHANNELS 3 Zrotation Yrotation Xrotation
		JOINT LeftLeg
		{
			OFFSET 43.500008 -0.000042 -0.000011
			CHANNELS 3 Zrotation Yrotation Xrotation
			JOINT LeftFoot
			{
				OFFSET 42.372200 0.000000 0.000010
				CHANNELS 3 Zrotation Yrotation Xrotation
				JOINT LeftToe
				{
					OFFSET 17.300018 0.000008 -0.000006
					CHANNELS 3 Zrotation Yrotation Xrotation
					End Site
					{
						OFFSET 0.000000 0.000000 0.000000
					}
				}
			}
		}
	}
	JOINT RightUpLeg
	{
		OFFSET 0.103459 1.857820 -10.548510
		CHANNELS 3 Zrotation Yrotation Xrotation
		JOINT RightLeg
		{
			OFFSET 43.500038 -0.000004 -0.000004
			CHANNELS 3 Zrotation Yrotation Xrotation
			JOINT RightFoot
			{
				OFFSET 42.372261 -0.000019 0.000015
				CHANNELS 3 Zrotation Yrotation Xrotation
				JOINT RightToe
				{
					OFFSET 17.300003 -0.000001 0.000006
					CHANNELS 3 Zrotation Yrotation Xrotation
					End Site
					{
						OFFSET 0.000000 0.000000 0.000000
					}
				}
			}
		}
	}
	JOINT Spine
	{
		OFFSET 6.901967 -2.603730 -0.000004
		CHANNELS 3 Zrotation Yrotation Xrotation
		JOINT Spine1
		{
			OFFSET 12.588097 -0.000009 0.000008
			CHANNELS 3 Zrotation Yrotation Xrotation
			JOINT Spine2
			{
				OFFSET 12.343205 0.000003 -0.000002
				CHANNELS 3 Zrotation Yrotation Xrotation
				JOINT Neck
				{
					OFFSET 25.832899 -0.000006 0.000003
					CHANNELS 3 Zrotation Yrotation Xrotation
					JOINT Head
					{
						OFFSET 11.766611 0.000013 0.000001
						CHANNELS 3 Zrotation Yrotation Xrotation
						End Site
						{
							OFFSET 0.000000 0.000000 0.000000
						}
					}
				}
				JOINT LeftShoulder
				{
					OFFSET 19.745903 -1.480350 6.000102
					CHANNELS 3 Zrotation Yrotation Xrotation
					JOINT LeftArm
					{
						OFFSET 11.284125 -0.000002 -0.000024
						CHANNELS 3 Zrotation Yrotation Xrotation
						JOINT LeftForeArm
						{
							OFFSET 33.000050 0.000009 0.000033
							CHANNELS 3 Zrotation Yrotation Xrotation
							JOINT LeftHand
							{
								OFFSET 25.200012 0.000010 -0.000003
								CHANNELS 3 Zrotation Yrotation Xrotation
								End Site
								{
									OFFSET 0.000000 0.000000 0.000000
								}
							}
						}
					}
				}
				JOINT RightShoulder
				{
					OFFSET 19.746105 -1.480362 -6.000072
					CHANNELS 3 Zrotation Yrotation Xrotation
					JOINT RightArm
					{
						OFFSET 11.284140 -0.000003 -0.000004
						CHANNELS 3 Zrotation Yrotation Xrotation
						JOINT RightForeArm
						{
							OFFSET 33.000099 0.000013 0.000007
							CHANNELS 3 Zrotation Yrotation Xrotation
							JOINT RightHand
							{
								OFFSET 25.199776 0.000126 0.000428
								CHANNELS 3 Zrotation Yrotation Xrotation
								End Site
								{
									OFFSET 0.000000 0.000000 0.000000
								}
							}
						}
					}
				}
			}
		}
	}
}
MOTION
Frames: 14
Frame Time: 0.033333
-219.233505 89.668282 -438.439514 89.877810 7.451461 94.477110 158.766518 -9.690995 174.088995 -55.533119 -4.455118 2.496937 63.756107 -5.299330 -8.820505 21.454548 0.003088 0.000001 -176.750433 3.257403 -175.110723 -19.862562 6.761988 9.629038 83.246708 -6.282471 2.281783 21.454558 -0.003112 -0.000019 8.851754 0.636477 0.808552 7.699926 1.217785 1.657682 7.381880 1.227906 1.650300 3.937397 -1.342542 2.085768 -14.861476 2.744744 1.021898 -155.352420 -75.568448 -26.689039 -9.382610 37.799244 9.371706 -55.123694 -19.429127 2.221870 6.655958 5.638831 45.602755 -158.206073 75.161656 23.737641 -5.971753 -31.270129 -21.994394 -40.502451 18.242091 -1.710494 3.647929 3.311046 -23.624055 
-218.983398 89.664452 -438.425690 90.400101 7.579078 95.553165 156.849639 -10.323305 173.873735 -57.775382 -4.593346 3.623010 63.343352 -6.228276 -8.952515 21.454545 0.003094 -0.000003 -176.309708 3.785717 -175.239418 -19.634342 6.945758 10.270816 83.298180 -6.643169 2.643345 21.454558 -0.003107 -0.000017 8.956434 0.585992 0.926652 7.909532 1.107322 1.891197 7.591565 1.118851 1.884479 4.752753 -1.528645 2.727006 -15.165146 2.393869 1.788238 -157.535923 -74.568898 -24.475763 -12.062742 41.566305 12.125838 -49.793548 -19.798294 2.063974 6.400169 6.452957 44.453023 -164.144882 73.918746 17.671894 -7.195111 -33.964328 -24.691800 -39.356312 18.064831 -1.668282 3.088381 4.595873 -25.389890 
-218.654205 89.731438 -438.301910 91.015665 7.649227 96.201910 156.042556 -10.752396 173.893379 -57.624646 -5.143668 3.008077 65.929931 -5.177626 -8.124913 21.454555 0.003093 0.000000 -175.961833 4.437296 -175.073171 -19.589314 6.814117 10.508897 83.362595 -6.715999 3.059681 21.454558 -0.003111 -0.000018 9.021049 0.486374 1.069529 8.038009 0.897345 2.170233 7.720115 0.910563 2.164790 5.638465 -1.586252 3.684768 -15.687602 1.893946 2.957219 -159.587698 -73.863681 -22.385703 -14.051346 45.759815 13.757258 -43.127676 -19.288335 1.824397 5.988317 5.465853 41.346830 -168.585830 73.041298 13.119529 -9.000005 -37.330378 -26.826179 -38.186843 18.178029 -1.645272 2.351001 5.518865 -26.027360 
-218.271698 89.867798 -438.141510 91.635355 7.520146 96.630176 156.170049 -11.102295 173.587004 -55.066484 -5.401928 0.345449 67.069493 -3.163992 -8.296821 21.454553 0.003084 0.000003 -175.806761 5.083892 -174.826396 -19.533383 6.448065 10.603496 83.349044 -6.674477 3.556790 21.454558 -0.003110 -0.000017 9.020722 0.349099 1.190665 8.035174 0.614748 2.402661 7.717369 0.629377 2.398911 6.454440 -1.541611 4.893308 -16.301186 1.524909 4.360794 -161.222381 -73.284009 -20.717253 -14.591147 49.981046 14.469915 -37.130336 -18.271804 1.597519 5.982208 4.762186 37.747426 -171.613503 72.258313 10.007770 -10.955693 -40.593607 -27.925701 -38.594745 18.002804 -1.644385 1.619335 5.946786 -27.008182 
-217.843506 89.995033 -437.905914 92.140297 7.253670 97.317143 156.871263 -11.121904 173.524262 -50.634426 -5.012883 -2.506272 66.600901 -1.218078 -8.610610 21.454553 0.003091 -0.000001 -175.574193 5.694208 -174.353337 -19.273201 6.221449 10.714644 83.311868 -6.654411 4.027187 21.454560 -0.003113 -0.000017 8.972792 0.241821 1.207370 7.937044 0.400306 2.428464 7.619246 0.415106 2.426003 7.019360 -1.810983 5.931843 -16.859012 1.345074 5.486062 -161.465891 -72.500914 -20.477107 -13.686541 53.719872 15.267124 -32.657843 -17.326904 1.433238 7.301198 5.231895 36.216340 -173.327812 71.695908 8.241753 -12.721891 -43.578273 -29.078834 -41.152146 18.111589 -1.719725 -0.200525 5.855790 -28.514115 
-217.354507 90.071823 -437.587311 92.515008 6.942520 98.247388 158.010853 -10.856607 173.741325 -44.931549 -4.254264 -5.558547 66.055019 1.076981 -8.351105 21.454543 0.003074 -0.000001 -175.235770 6.261701 -173.740628 -18.958015 6.164594 10.868698 83.341381 -6.670609 4.490124 21.454558 -0.003103 -0.000017 8.932928 0.134324 1.172020 7.854996 0.188824 2.350424 7.537188 0.203174 2.349234 6.860277 -1.675416 6.695248 -17.141931 0.991448 6.420693 -159.867285 -71.920615 -22.128365 -11.846904 57.177395 15.914100 -29.769632 -16.938355 1.349338 9.146299 7.673597 36.429456 -173.604011 70.939041 7.952184 -14.403170 -45.995279 -30.159776 -45.521418 18.813167 -1.892463 -1.560566 5.688853 -32.445304 
-216.817398 90.090523 -437.179199 92.642104 6.516283 99.291976 159.288194 -10.596100 174.395958 -38.621957 -3.459194 -8.858268 65.977203 3.192742 -9.158543 21.454555 0.003094 -0.000001 -174.918290 6.527301 -173.596184 -18.525230 6.135068 11.381398 83.366543 -6.902481 5.104406 21.454555 -0.003125 -0.000018 8.852386 0.064630 1.172311 7.692468 0.051286 2.346295 7.374655 0.065591 2.345938 6.524420 -1.681903 7.105456 -17.257462 0.784624 6.913508 -158.551408 -71.499322 -23.488614 -8.314259 59.861868 18.479150 -28.221199 -16.570408 1.296768 11.375941 9.244323 36.325326 -172.313105 70.452787 9.279458 -15.812994 -48.303726 -30.747394 -50.836176 19.183233 -2.087261 -3.363091 6.161572 -35.455502 
-216.269104 90.075043 -436.687714 92.596526 5.991508 100.738802 160.341040 -10.374216 175.068499 -32.600930 -2.705030 -11.812106 66.049316 5.090137 -9.904964 21.454550 0.003092 0.000001 -174.450517 6.525298 -173.465181 -17.804389 6.105984 12.166251 83.329408 -7.300412 5.817641 21.454558 -0.003104 -0.000016 8.734757 0.027458 1.147117 7.456488 -0.018965 2.293578 7.138672 -0.004973 2.293652 6.167747 -1.633542 7.207912 -17.227501 0.558200 7.098549 -157.424304 -71.264937 -24.652565 -3.630043 61.858045 21.999512 -27.368532 -16.417386 1.271760 12.916610 11.219106 36.741179 -170.503802 70.124494 11.143976 -16.589467 -50.621185 -29.962947 -56.759692 18.908761 -2.276943 -4.372956 5.159746 -37.096769 
-215.631302 90.007500 -436.138885 92.462484 5.461733 102.408100 161.039209 -10.310310 174.655232 -27.640019 -2.043787 -13.621340 65.965216 6.262907 -10.318119 21.454555 0.003094 0.000000 -173.889704 6.421996 -173.352059 -17.044648 6.053745 13.095112 83.330808 -7.773933 6.655506 21.454557 -0.003105 -0.000016 8.633592 -0.025384 1.143695 7.253138 -0.122283 2.283527 6.935321 -0.108361 2.284227 5.431424 -1.173107 7.093748 -16.905143 0.349026 7.092614 -156.034879 -71.295386 -26.081644 0.811742 63.225620 25.770939 -26.566647 -16.233184 1.246196 13.520225 12.286949 36.365836 -168.572306 69.573167 13.137000 -17.467123 -52.367460 -28.628383 -62.146443 17.947148 -2.414898 -5.100106 3.680451 -38.108682 
-214.916504 89.923264 -435.569702 92.304372 4.892555 104.262407 161.342373 -10.218989 173.987349 -23.990380 -1.803067 -14.817865 65.865461 7.093571 -10.449248 21.454553 0.003096 0.000000 -173.314930 6.283795 -173.014648 -16.314897 5.892075 14.006714 83.336750 -8.218075 7.592407 21.454558 -0.003105 -0.000018 8.538388 -0.084786 1.175565 7.061489 -0.241020 2.343775 6.743683 -0.226730 2.345190 4.714268 -1.155998 6.811044 -16.787739 0.651117 6.674421 -155.620505 -71.274574 -26.508517 4.751174 63.677560 29.447268 -26.197865 -15.989609 1.224499 13.679119 12.397610 35.281994 -167.785974 69.455162 13.949053 -17.468832 -53.969573 -27.228891 -67.262207 16.717245 -2.533932 -6.123150 1.383820 -38.976167 
-214.067505 89.773613 -434.943207 92.115517 4.422000 106.233901 161.256354 -9.930408 171.815676 -22.145222 -1.333868 -14.897778 66.362412 7.426095 -9.767700 21.454551 0.003094 0.000000 -172.720198 6.170591 -171.929180 -15.986937 5.549924 14.520748 83.497888 -8.373305 8.650494 21.454558 -0.003110 -0.000017 8.483982 -0.139389 1.214415 6.951456 -0.351328 2.418289 6.633651 -0.336584 2.420364 3.730319 -1.306730 6.560883 -16.552700 1.158848 6.187608 -154.584789 -71.215978 -27.575376 7.330118 63.658149 31.857833 -26.167389 -15.741470 1.208192 13.860268 12.300864 34.971627 -167.604578 69.638526 14.135834 -17.668613 -55.184688 -25.761510 -71.567487 15.189405 -2.605779 -6.848284 -0.080272 -38.920641 
-213.042404 89.546371 -434.248413 91.905905 4.062230 108.280799 160.955566 -9.548603 169.370673 -21.839877 -1.003210 -14.443234 67.169849 7.365189 -9.115511 21.454553 0.003091 -0.000000 -172.012276 6.095504 -170.734990 -15.855149 5.205013 14.989692 83.721577 -8.475309 9.861223 21.454560 -0.003106 -0.000017 8.454849 -0.192706 1.324360 6.891590 -0.463759 2.634926 6.573856 -0.447704 2.637683 2.812860 -1.266856 6.263361 -16.510562 1.591417 5.708619 -154.495314 -71.279328 -27.666012 8.827534 63.399168 33.195959 -26.647819 -16.026037 1.234384 13.980458 12.386572 35.677520 -167.109799 69.797198 14.646040 -18.065596 -55.633154 -24.581318 -74.890026 13.643299 -2.638526 -7.038299 -1.085525 -38.400078 
-211.918594 89.331596 -433.483002 91.763974 3.723071 110.329500 160.750551 -8.897407 166.898090 -22.193714 -0.662258 -13.942694 67.909210 7.727609 -7.075635 21.454551 0.003098 0.000002 -171.120595 6.081693 -169.469356 -15.587926 4.854360 15.428680 83.839083 -8.552697 11.109851 21.454558 -0.003110 -0.000020 8.418519 -0.270683 1.443034 6.816480 -0.625679 2.867687 6.498796 -0.608221 2.871414 2.410067 -0.935237 6.131306 -17.029108 1.716512 5.565038 -154.920712 -71.298494 -27.227866 9.237267 62.844857 33.046081 -27.269366 -16.223639 1.257668 14.020068 12.044355 36.289690 -167.139018 70.093949 14.614945 -18.214764 -55.685740 -23.684408 -77.344072 12.293675 -2.649549 -7.678433 -1.962689 -37.501925 
-210.607193 89.196983 -432.665314 92.016937 3.391585 112.322802 160.576491 -7.729019 163.955249 -22.920204 0.429948 -12.545916 67.748032 7.303460 -5.246851 21.454555 0.003094 0.000000 -169.904125 6.501283 -168.356745 -15.130192 4.594750 15.949513 83.790199 -8.676769 12.411864 21.454558 -0.003115 -0.000019 8.396379 -0.434131 1.534263 6.767486 -0.957038 3.040662 6.449821 -0.938517 3.046369 2.254172 -0.551307 6.147969 -17.525352 1.718784 5.634471 -154.696176 -71.362411 -27.457360 8.567034 62.367564 32.102425 -27.825695 -16.480521 1.283895 13.723806 11.415875 35.526553 -167.470105 70.621335 14.271901 -18.590156 -55.481651 -23.297396 -78.778452 11.489887 -2.655423 -7.749272 -2.113424 -37.625668 
